<svg width="775" height="765" viewBox="0 0 775 765" fill="none" xmlns="http://www.w3.org/2000/svg">
<path d="M100.492 199.394C105.907 194.499 114.573 196.868 116.745 203.837L223.048 544.933C225.055 551.37 220.245 557.908 213.501 557.908H140.195C136.448 557.908 133.015 555.813 131.302 552.48L1.10695 299.244C-0.965405 295.213 -0.0676416 290.293 3.29467 287.254L100.492 199.394Z" fill="#111827"/>
<path d="M100.492 199.394C105.907 194.499 114.573 196.868 116.745 203.837L223.048 544.933C225.055 551.37 220.245 557.908 213.501 557.908H140.195C136.448 557.908 133.015 555.813 131.302 552.48L1.10695 299.244C-0.965405 295.213 -0.0676416 290.293 3.29467 287.254L100.492 199.394Z" fill="#111827"/>
<path d="M285.554 2.22536C291.071 -2.22938 299.343 0.313659 301.404 7.09818L527.424 750.917C528.457 754.318 527.608 758.011 525.193 760.619L524.469 761.401C520.319 765.883 513.158 765.63 509.334 760.868L356.271 570.244C354.56 568.113 352.052 566.776 349.33 566.542L249.719 557.978C245.705 557.633 242.289 554.912 241.056 551.077L112.193 150.44C110.927 146.504 112.214 142.195 115.43 139.598L285.554 2.22536Z" fill="#111827"/>
<path d="M100.492 199.394C105.907 194.499 114.573 196.868 116.745 203.837L223.048 544.933C225.055 551.37 220.245 557.908 213.501 557.908H140.195C136.448 557.908 133.015 555.813 131.302 552.48L1.10695 299.244C-0.965405 295.213 -0.0676416 290.293 3.29467 287.254L100.492 199.394Z" fill="#111827"/>
<path d="M589.825 130.908C591.013 129.835 592.72 129.926 593.808 130.868C594.639 131.587 594.686 132.801 594.657 133.9L589.87 312.749C589.84 313.848 589.841 314.869 589.793 315.966C588.706 341.047 567.059 659.598 562.722 699.757C562.47 702.091 562.092 705.811 562.092 708.158C562.092 710.505 560.198 712.455 557.851 712.515C550.031 712.717 533.857 713.094 529.949 712.633C529.353 712.563 529.004 712.119 528.83 711.544L402.023 293.829C401.738 292.887 401.592 291.908 401.592 290.924V269.087C401.592 265.839 403.169 262.794 405.822 260.92L589.825 130.908Z" fill="#111827"/>
<path d="M589.825 130.908C591.013 129.835 592.72 129.926 593.808 130.868C594.639 131.587 594.686 132.801 594.657 133.9L589.87 312.749C589.84 313.848 589.841 314.869 589.793 315.966C588.706 341.047 567.059 659.598 562.722 699.757C562.47 702.091 562.092 705.811 562.092 708.158C562.092 710.505 560.198 712.455 557.851 712.515C550.031 712.717 533.857 713.094 529.949 712.633C529.353 712.563 529.004 712.119 528.83 711.544L402.023 293.829C401.738 292.887 401.592 291.908 401.592 290.924V269.087C401.592 265.839 403.169 262.794 405.822 260.92L589.825 130.908Z" fill="#111827"/>
<path d="M589.825 130.908C591.013 129.835 592.72 129.926 593.808 130.868C594.639 131.587 594.686 132.801 594.657 133.9L589.87 312.749C589.84 313.848 589.841 314.869 589.793 315.966C588.706 341.047 567.059 659.598 562.722 699.757C562.47 702.091 562.092 705.811 562.092 708.158C562.092 710.505 560.198 712.455 557.851 712.515C550.031 712.717 533.857 713.094 529.949 712.633C529.353 712.563 529.004 712.119 528.83 711.544L402.023 293.829C401.738 292.887 401.592 291.908 401.592 290.924V269.087C401.592 265.839 403.169 262.794 405.822 260.92L589.825 130.908Z" fill="#111827"/>
<path d="M718.299 218.822C719.924 217.353 717.648 216.731 718.299 218.822L766.865 204.587C772.101 203.052 775.27 205.853 773.744 211.092C755.531 273.599 646.149 630.822 644.299 630.822C643.309 630.822 597.957 612.995 586.77 608.048C585.105 607.311 584.365 605.861 584.488 604.045L604.299 313.322C603.677 312.112 603.29 314.233 604.299 313.322L718.299 218.822Z" fill="#111827"/>
<path d="M718.299 218.822C719.924 217.353 717.648 216.731 718.299 218.822L766.865 204.587C772.101 203.052 775.27 205.853 773.744 211.092C755.531 273.599 646.149 630.822 644.299 630.822C643.309 630.822 597.957 612.995 586.77 608.048C585.105 607.311 584.365 605.861 584.488 604.045L604.299 313.322C603.677 312.112 603.29 314.233 604.299 313.322L718.299 218.822Z" fill="#111827"/>
<path d="M718.299 218.822C719.924 217.353 717.648 216.731 718.299 218.822L766.865 204.587C772.101 203.052 775.27 205.853 773.744 211.092C755.531 273.599 646.149 630.822 644.299 630.822C643.309 630.822 597.957 612.995 586.77 608.048C585.105 607.311 584.365 605.861 584.488 604.045L604.299 313.322C603.677 312.112 603.29 314.233 604.299 313.322L718.299 218.822Z" fill="#111827"/>
</svg>
